<svg xmlns="http://www.w3.org/2000/svg" width="600" height="600" viewBox="0 0 600 600"><defs><linearGradient id="g" x2="1" y2="1"><stop stop-color="#edba65"/><stop offset="1" stop-color="#a35332"/></linearGradient></defs><path fill="url(#g)" d="M0 0h600v600H0z"/><g fill="none" stroke="#ffffff" opacity=".32" stroke-width="2"><circle cx="215" cy="272" r="45"/><circle cx="215" cy="272" r="68"/><circle cx="215" cy="272" r="91"/><circle cx="215" cy="272" r="114"/><circle cx="215" cy="272" r="137"/><circle cx="215" cy="272" r="160"/><circle cx="215" cy="272" r="183"/><circle cx="215" cy="272" r="206"/><circle cx="215" cy="272" r="229"/><circle cx="215" cy="272" r="252"/><circle cx="215" cy="272" r="275"/><circle cx="215" cy="272" r="298"/><circle cx="215" cy="272" r="321"/><circle cx="215" cy="272" r="344"/><circle cx="215" cy="272" r="367"/><circle cx="215" cy="272" r="390"/><circle cx="215" cy="272" r="413"/><circle cx="215" cy="272" r="436"/></g><path d="M0 460L600 160V600H0Z" fill="#101016" opacity=".25"/><text x="42" y="74" font-family="sans-serif" font-size="18" letter-spacing="5" fill="white">MUSIC LIBRARY STUDIO</text><text x="40" y="554" font-family="sans-serif" font-size="72" fill="white">02</text></svg>
